<?xml version="1.0" encoding="UTF-8"?>
<svg width="682px" height="351px" viewBox="0 0 682 351" version="1.1" xmlns="http://www.w3.org/2000/svg" xmlns:xlink="http://www.w3.org/1999/xlink">
    <title>Powerlever</title>
    <g id="Page-1" stroke="none" stroke-width="1" fill="none" fill-rule="evenodd">
        <g id="Artboard-Copy-5" transform="translate(-716.000000, -1406.000000)" fill-rule="nonzero">
            <g id="logo-color" transform="translate(716.000000, 1406.000000)">
                <polygon id="Path" fill="#000000" points="87.87 7.64 8.1 221.42 8.1 343.73 674.1 343.73 674.05 222.45 629.49 153.21 632.99 116.59 610.33 56.7 562.45 7.64 385.41 7.67 378.1 22.03 370 7.65 321.69 7.65 314.33 22.03 306.27 7.65 202.35 7.64 179.74 25.12 160.21 7.64"></polygon>
                <path d="M157.47,14.84 L174.91,30.45 L179.37,34.45 L184.1,30.79 L204.77,14.79 L302.02,14.79 L308.02,25.5 L314.59,37.22 L320.7,25.22 L326.06,14.76 L365.76,14.76 L371.76,25.48 L378.35,37.17 L384.44,25.17 L389.75,14.73 L559.34,14.73 L604.14,60.65 L625.67,117.57 L622.33,152.57 L622.09,155.05 L623.44,157.14 L666.91,224.57 L666.91,336.57 L15.3,336.57 L15.3,222.72 L92.91,14.84 L157.51,14.84 M562.51,7.64 L385.51,7.64 L378.19,22 L370,7.65 L321.7,7.65 L314.34,22.03 L306.28,7.65 L202.35,7.65 L179.74,25.12 L160.22,7.64 L87.91,7.64 L8.1,221.45 L8.1,343.73 L674.1,343.73 L674.05,222.45 L629.49,153.21 L632.99,116.59 L610.34,56.7 L562.45,7.64 L562.51,7.64 Z" id="Shape" fill="#3BE4B9"></path>
                <path d="M562.45,7.64 L610.34,56.7 L632.99,116.59 L629.49,153.21 L674.05,222.45 L674.1,343.73 L8.1,343.73 L8.1,221.45 L87.91,7.64 L160.26,7.64 L179.78,25.12 L202.35,7.64 L306.28,7.64 L314.34,22.02 L321.7,7.65 L370,7.65 L378.1,22.03 L385.42,7.67 L562.42,7.67 M565.42,0.48 L562.42,0.48 L385.42,0.48 L381.01,0.48 L379.01,4.45 L377.78,6.86 L376.27,4.17 L374.2,0.45 L317.29,0.45 L315.29,4.37 L314.05,6.79 L312.55,4.12 L310.49,0.45 L199.91,0.45 L197.97,1.95 L180.08,15.76 L165.01,2.28 L163.01,0.45 L82.91,0.45 L81.13,5.13 L1.36,218.91 L0.91,220.12 L0.91,350.92 L681.3,350.92 L681.3,343.73 L681.3,222.45 L681.3,220.33 L680.15,218.56 L636.91,151.45 L640.18,117.31 L640.33,115.65 L639.74,114.08 L617.07,54.16 L616.53,52.75 L615.53,51.68 L567.6,2.62 L565.48,0.45 L565.42,0.48 Z" id="Shape" fill="#000000"></path>
                <g id="Text" transform="translate(32.000000, 31.000000)">
                    <g id="Level" transform="translate(423.000000, 210.000000)" fill="#FFE200">
                        <polygon id="Path" points="0.91 78.89 0.91 0.71 12.1 0.71 12.1 68.97 30.76 68.97 30.76 78.89"></polygon>
                        <polygon id="Path" points="38.48 78.89 38.48 0.71 69.31 0.71 69.31 10.63 49.67 10.63 49.67 34.38 68.34 34.38 68.34 44.29 49.67 44.29 49.67 68.97 69.31 68.97 69.31 78.89"></polygon>
                        <polygon id="Path" points="86.2 78.89 76.2 0.71 87.81 0.71 93.04 42.1 94.41 68.92 98.71 68.92 100.12 42.1 105.3 0.71 116.91 0.71 106.91 78.89"></polygon>
                        <polygon id="Path" points="125.14 78.89 125.14 0.71 155.97 0.71 155.97 10.63 136.33 10.63 136.33 34.38 155 34.38 155 44.29 136.33 44.29 136.33 68.97 155.97 68.97 155.97 78.89"></polygon>
                        <polygon id="Path" points="164.6 78.89 164.6 0.71 175.79 0.71 175.79 68.97 194.45 68.97 194.45 78.89"></polygon>
                    </g>
                    <g id="Power">
                        <path d="M517.53,30.34 L506.59,30.34 L526.67,98.34 L538.67,98.34 C547.403333,98.34 550.51,94.0066667 547.99,85.34 C545.99,78.3066667 543.85,71.3066667 541.57,64.34 C539.29,57.3733333 536.816667,50.3733333 534.15,43.34 C530.936667,34.68 525.396667,30.3466667 517.53,30.34 Z M98.3,30.34 L86.02,30.34 L62.52,100.83 L75.98,100.83 C84.74,100.83 90.62,96.4966667 93.62,87.83 C95.9333333,81.2033333 98.2666667,73.9166667 100.62,65.97 C102.973333,58.0233333 105.04,50.5 106.82,43.4 C109.053333,34.7 106.213333,30.3466667 98.3,30.34 Z M508.91,2.62 C521.37,2.62 531.51,5.9 539.42,12.45 C547.33,19 554.49,29.83 560.48,44.91 C563.553333,52.73 566.086667,59.3466667 568.08,64.76 C570.073333,70.1733333 572.303333,76.5066667 574.77,83.76 C578.003333,93.32 579.403333,101.12 578.97,107.16 C578.536667,113.2 575.993333,117.76 571.34,120.84 L572.51,122.65 L505.16,122.65 L474.25,2.65 L508.91,2.62 Z M459.58,2.62 L466.08,30.34 L426.4,30.34 L435.48,82.11 L476.17,82.11 L482.59,109.84 L440.34,109.84 L442.59,122.66 L413.91,122.66 L397.38,2.66 L459.58,2.62 Z M383.43,2.62 L386.79,122.62 L361.57,122.62 L360.69,85.45 L359.17,2.64 L383.43,2.62 Z M331.59,3.8 L347.2,85.45 L349.59,122.68 L322.35,122.68 L318.14,30.45 L309.77,30.45 L306.91,122.66 L279.77,122.66 L281.61,85.45 L295.91,3.8 L331.59,3.8 Z M268.44,2.62 L268.12,85.45 L267.79,122.68 L242.57,122.68 L244.18,2.68 L268.44,2.62 Z M194.41,0.45 C207.25,0.45 216.05,3.84 220.88,10.64 C225.71,17.44 227.59,28.64 226.05,44.4 C224.89,57.1933333 223.703333,69.1933333 222.49,80.4 C221.276667,91.6066667 219.923333,102.84 218.43,114.1 C218.056667,116.886667 217.673333,119.72 217.28,122.6 L188.79,122.6 C190.33,113.933333 191.746667,105.493333 193.04,97.28 C195.76,80.02 198.303333,61.8333333 200.67,42.72 C201.503333,36.72 201.093333,32.4366667 199.44,29.87 C197.786667,27.3033333 194.58,26.02 189.82,26.02 C185.033333,26.02 181.33,27.3033333 178.71,29.87 C176.09,32.4366667 174.156667,36.74 172.91,42.78 C168.463333,61.74 164.496667,79.8466667 161.01,97.1 C159.336667,105.4 157.706667,113.92 156.12,122.66 L127.84,122.66 C128.506667,119.726667 129.173333,116.853333 129.84,114.04 C132.453333,102.793333 135.12,91.56 137.84,80.34 C140.56,69.12 143.543333,57.1566667 146.79,44.45 C150.79,28.73 156.513333,17.4766667 163.96,10.69 C171.26,3.88 181.38,0.45 194.41,0.45 Z M107.03,2.58 C119.49,2.58 127.58,5.86 131.38,12.41 C135.18,18.96 135.56,29.79 132.1,44.87 C130.313333,52.59 128.583333,59.6133333 126.91,65.94 C125.236667,72.2666667 123.393333,79 121.38,86.14 C116.993333,101.226667 110.66,112.066667 102.38,118.66 C100.419879,120.191772 98.3168447,121.531284 96.1,122.66 L26.55,122.66 L71.1,2.66 L107.03,2.58 Z" id="Shape" fill="#3BE4B9"></path>
                        <path d="M127.17,125.59 L155.54,125.59 C155.02,128.51 154.54,131.44 153.98,134.41 L125.18,134.41 C125.85,131.45 126.52,128.45 127.17,125.59 Z M216.86,125.59 C216.45,128.49 216.03,131.42 215.59,134.41 L186.66,134.41 C187.213333,131.45 187.75,128.51 188.27,125.59 L216.86,125.59 Z M386.86,125.59 L387.1,134.41 L361.84,134.41 L361.63,125.59 L386.86,125.59 Z M574.38,125.59 L580.08,134.41 L550.91,134.41 L546.07,126.07 L534.87,126.07 L537.31,134.45 L508.18,134.45 L505.91,125.59 L574.38,125.59 Z M443.09,125.59 L444.63,134.41 L415.51,134.41 L414.3,125.59 L443.09,125.59 Z M25.45,125.59 L88.91,125.59 C82.0635113,127.642593 74.9472695,128.653902 67.8,128.59 L53.28,128.59 L51.28,134.45 L22.19,134.45 L25.45,125.59 Z M349.77,125.59 L350.33,134.41 L322.91,134.41 L322.51,125.59 L349.77,125.59 Z M306.77,125.59 L306.5,134.41 L279.19,134.41 L279.62,125.59 L306.77,125.59 Z M267.77,125.59 L267.69,134.41 L242.42,134.41 L242.53,125.59 L267.77,125.59 Z M306.4,137.34 L305.07,146.16 L278.61,146.16 L279.04,137.34 L306.4,137.34 Z M445.16,137.34 L446.7,146.16 L417.13,146.16 L415.91,137.34 L445.16,137.34 Z M50.35,137.34 L47.41,146.16 L17.83,146.16 L21.1,137.34 L50.35,137.34 Z M581.99,137.34 L587.69,146.16 L557.69,146.16 L552.58,137.34 L581.99,137.34 Z M538.18,137.34 L540.78,146.16 L511.21,146.16 L508.91,137.34 L538.18,137.34 Z M153.48,137.34 C152.98,140.26 152.48,143.19 151.99,146.16 L122.56,146.16 C123.22,143.16 123.87,140.24 124.56,137.34 L153.48,137.34 Z M387.2,137.34 L387.44,146.16 L362.12,146.16 L361.91,137.34 L387.2,137.34 Z M350.53,137.34 L351.1,146.16 L324.52,146.16 L323.06,137.34 L350.53,137.34 Z M215.16,137.34 C214.726667,140.24 214.28,143.18 213.82,146.16 L184.43,146.16 C185.01,143.2 185.57,140.26 186.11,137.34 L215.16,137.34 Z M267.66,137.34 L267.58,146.16 L242.26,146.16 L242.38,137.34 L267.66,137.34 Z" id="Shape" fill="#FFF8C6"></path>
                        <path d="M589.59,149.09 L594.97,157.42 L564.22,157.42 L559.4,149.09 L589.59,149.09 Z M541.65,149.09 L544.1,157.42 L514.1,157.42 L511.95,149.09 L541.65,149.09 Z M447.22,149.09 L448.68,157.42 L418.68,157.42 L417.54,149.09 L447.22,149.09 Z M387.52,149.09 L387.76,157.42 L362.38,157.42 L362.19,149.09 L387.52,149.09 Z M351.29,149.09 L351.82,157.42 L326.39,157.42 L325.01,149.09 L351.29,149.09 Z M304.63,149.09 L303.37,157.45 L278.05,157.45 L278.46,149.12 L304.63,149.09 Z M267.56,149.09 L267.48,157.42 L242.11,157.42 L242.22,149.09 L267.56,149.09 Z M46.43,149.09 L43.65,157.45 L13.65,157.45 L16.73,149.12 L46.43,149.09 Z M213.37,149.09 L213.19,150.23 C212.81,152.736667 212.36,155.133333 211.84,157.42 L181.91,157.42 C182.536106,155.57622 183.020842,153.687422 183.36,151.77 C183.54,150.88 183.72,149.98 183.89,149.09 L213.37,149.09 Z M151.51,149.09 C151.36,149.98 151.22,150.88 151.07,151.77 C150.702589,153.632207 150.495166,155.522432 150.45,157.42 L120.36,157.42 C120.68,155.14 121.113333,152.743333 121.66,150.23 C121.74,149.85 121.82,149.47 121.91,149.09 L151.51,149.09 Z M42.67,160.35 L39.74,169.16 L9.29,169.16 L12.57,160.35 L42.67,160.35 Z M596.87,160.35 L602.57,169.16 L571.04,169.16 L565.91,160.35 L596.87,160.35 Z M544.97,160.35 L547.57,169.16 L517.13,169.16 L514.91,160.35 L544.97,160.35 Z M449.19,160.35 L449.91,164.45 L497.53,164.45 L498.64,169.16 L420.3,169.16 L419.08,160.35 L449.19,160.35 Z M352.01,160.35 L352.27,164.45 L362.55,164.45 L362.45,160.35 L387.84,160.35 L388.09,169.16 L328.33,169.16 L326.91,160.35 L352.01,160.35 Z M267.46,160.35 L267.46,164.45 L277.74,164.45 L277.94,160.35 L302.94,160.35 L301.61,169.16 L241.91,169.16 L242.03,160.35 L267.46,160.35 Z M150.63,160.35 C150.808446,161.970441 151.423681,163.511984 152.41,164.81 C154.476667,167.33 158.42,168.593333 164.24,168.6 C170.06,168.606667 174.42,167.343333 177.32,164.81 C178.702142,163.549727 179.829243,162.03561 180.64,160.35 L211.11,160.35 C210.325131,163.355581 209.32248,166.30003 208.11,169.16 L119.82,169.16 C119.643216,166.223061 119.706761,163.276586 120.01,160.35 L150.63,160.35 Z" id="Shape" fill="#D2C355"></path>
                        <path d="M604.47,172.1 L610.17,180.91 L577.85,180.91 L572.74,172.1 L604.47,172.1 Z M548.47,172.1 L551.07,180.91 L520.16,180.91 L517.91,172.1 L548.47,172.1 Z M499.36,172.1 L501.43,180.91 L421.91,180.91 L420.7,172.1 L499.36,172.1 Z M388.2,172.1 L388.45,180.91 L330.28,180.91 L328.82,172.1 L388.2,172.1 Z M301.2,172.1 L299.87,180.91 L241.87,180.91 L241.98,172.1 L301.2,172.1 Z M38.81,172.1 L35.87,180.91 L4.91,180.91 L8.18,172.1 L38.81,172.1 Z M206.74,172.1 C205.142712,175.291614 203.124737,178.254674 200.74,180.91 L122.97,180.91 C121.494559,178.171654 120.535273,175.185324 120.14,172.1 L206.74,172.1 Z M551.91,183.85 L554.37,192.17 L523.06,192.17 L520.91,183.85 L551.91,183.85 Z M502.08,183.85 L504.08,192.17 L423.47,192.17 L422.32,183.85 L502.08,183.85 Z M299.37,183.85 L298.12,192.17 L241.65,192.17 L241.76,183.85 L299.37,183.85 Z M612.07,183.85 L617.45,192.17 L584.37,192.17 L579.55,183.85 L612.07,183.85 Z M388.5,183.85 L388.73,192.17 L332.14,192.17 L330.76,183.85 L388.5,183.85 Z M34.84,183.85 L32.06,192.17 L0.76,192.17 L3.84,183.85 L34.84,183.85 Z M197.63,183.85 L197.32,184.12 C188.96,190.91 176.37,194.31 159.63,194.31 C142.63,194.31 131.14,190.91 125.19,184.12 L124.96,183.85 L197.63,183.85 Z" id="Shape" fill="#FFE200"></path>
                    </g>
                </g>
            </g>
        </g>
    </g>
</svg>